<svg viewBox="0 0 64 64" xmlns="http://www.w3.org/2000/svg">
  <rect width="64" height="64" rx="10" fill="#1A1108"/>
  <circle cx="32" cy="32" r="27" fill="none" stroke="#C9A227" stroke-width="1" stroke-dasharray="2 2.5"/>
  <g transform="translate(32 34)" fill="#F4EBD7" stroke="#F4EBD7" stroke-linecap="round" stroke-linejoin="round">
    <path d="M -1 -11 Q -5 -16 -9 -19" fill="none" stroke-width="1.4"/>
    <path d="M  1 -11 Q  5 -16  9 -19" fill="none" stroke-width="1.4"/>
    <path d="M -4 -3 L -13 -7" fill="none" stroke-width="1.6"/>
    <path d="M -5  1 L -15  1" fill="none" stroke-width="1.6"/>
    <path d="M -4  7 L -12 12" fill="none" stroke-width="1.6"/>
    <path d="M  4 -3 L  13 -7" fill="none" stroke-width="1.6"/>
    <path d="M  5  1 L  15  1" fill="none" stroke-width="1.6"/>
    <path d="M  4  7 L  12 12" fill="none" stroke-width="1.6"/>
    <ellipse cx="0" cy="-9" rx="2.6" ry="2"/>
    <path d="M -4.6 -7 Q -4.6 -3 -3.4 -1.5 L 3.4 -1.5 Q 4.6 -3 4.6 -7 Q 0 -8.5 -4.6 -7 Z"/>
    <path d="M -5.4 -1.5 Q -7.2 1 -6 5 Q -4 9 0 10 Q 4 9 6 5 Q 7.2 1 5.4 -1.5 Z"/>
  </g>
</svg>
